/* XPM */
static char *_3d94790634b4458a70f5eb746d1a3653GefhrsGtDQkrGvm[] = {
/* columns rows colors chars-per-pixel */
"64 64 58 1 ",
"  c #010101",
". c #2C5B6C",
"X c #2C5E6E",
"o c #2D5F6F",
"O c #2D6070",
"+ c #2E6070",
"@ c #2E6170",
"# c #316A7B",
"$ c #316A7C",
"% c #326A7C",
"& c #326C7D",
"* c #337687",
"= c #327887",
"- c #337A87",
"; c #337788",
": c #377789",
"> c #37778D",
", c #38778A",
"< c #327888",
"1 c #337A88",
"2 c #347B8A",
"3 c #377A8D",
"4 c #377A8E",
"5 c #377B8F",
"6 c #337C8E",
"7 c #327D8F",
"8 c #347E8F",
"9 c #387A8F",
"0 c #367A90",
"q c #367A91",
"w c #377A91",
"e c #367B91",
"r c #378392",
"t c #378293",
"y c #378795",
"u c #378797",
"i c #3F8197",
"p c #388494",
"a c #398C9B",
"s c #398B9C",
"d c #3F899F",
"f c #398C9D",
"g c #4289A3",
"h c #418DA4",
"j c #438DA5",
"k c #468FA8",
"l c #4493A9",
"z c #4592AA",
"x c #4793AE",
"c c #4694AC",
"v c #4696B0",
"b c #4895B0",
"n c #4798B0",
"m c #479AB1",
"M c #479BB3",
"N c #499AB3",
"B c #499DB4",
"V c #489EB6",
/* pixels */
"i+++++++++do++++++++oh++....o.ogioo+++++++d++++++++++h++.......g",
"#         =          7         3$         <          8         8",
"#         <          8         w#         =          7         q",
"#         <          7         q#         <          8         3",
"$         =          7         q$         1          7         q",
"&         <          r         q$         1          7         w",
"&         <          7         q&         =          8         w",
"&         =          8         3&         <          7         w",
"&         <          8         3&         1          7         q",
"&         =          8         q$         *          r         e",
"j-----=-=<l=--=----==c<22222<57xj-<1----=<z=--==--=-=l<219111e1c",
"&         <          7         q&         =          7         q",
"&         =          7         q&         <          7         e",
"&         <          7         q&         =          7         e",
"&         1          7         q&         1          7         3",
"&         =          7         q&         1          e         q",
"&         =          7         3#         =          7         3",
"&         <          7         q&         <          7         q",
"&         =          8         q&         =          7         q",
"&         =          7         q&         =          7         q",
"#         *          7         9#         *          8         >",
"zyyyyyyyyunuuuuuyyyyymyyuuyyyypNzyyyyuuyuynuyuuyyyyyumuuuuuuuuuN",
"&         *          7         q#         *          7         3",
"&         =          e         9&         *          7         q",
"&         ;          7         9&         =          7         3",
"&         ;          7         8&         =          7         q",
"&         *          7         e&         *          7         3",
"&         *          7         q&         =          7         q",
"&         <          e         3&         *          7         q",
"&         ;          7         3&         =          7         8",
"&         <          q         3&         *          7         9",
"z993333333c3333q333q8c3q9999999bz33q333339cq39q3q3399v999999999b",
"j99w<33339z999=9<333>v33,,,,,;,bj9333q1993z9333<w9999z3q,,;,,,,c",
"#         =          8         w#         <          8         q",
"#         <          7         w#         =          7         w",
"#         =          8         w#         <          8         w",
"$         =          7         w$         <          8         w",
"&         =          8         q$         1          8         w",
"&         <          7         q&         =          8         w",
"&         =          q         3&         <          7         w",
"&         =          7         q&         -          8         q",
"&         <          e         q&         *          8         q",
"zpprrrrrrrcrrrrrpprrrmurrrurprpmzrpprrrrrrcprrrrrrrrrNrprpprprrN",
"#         ;          7         q$         ;          7         w",
"$         <          7         q$         <          7         q",
"&         1          7         q&         =          7         q",
"&         =          8         q&         =          7         3",
"&         =          7         q&         <          q         q",
"&         <          7         q$         =          7         3",
"&         =          7         q&         <          7         q",
"&         -          7         q&         <          r         q",
"&         <          7         3&         =          e         q",
"$         *          e         q$         *          7         e",
"NaaafuafafNfaaaaaaaafVfufffffaaVmsasaafaaamfaaaaaaaauBfusfffuffV",
"&         =          7         q&         =          r         q",
"&         =          7         3&         *          e         3",
"&         =          7         8&         =          7         3",
"&         *          8         9&         =          7         q",
"&         =          7         9&         *          7         8",
"&         =          7         9&         =          7         9",
"&         *          8         8&         =          7         9",
"&         =          8         9&         =          7         3",
"&         =          7         q&         *          7         q",
"j39q333339cwq333q3qq3c999999999bj39q333339zq9wq3q3339v999999999b"
};
