/* XPM */
static char *fcb055ea30ba419bc12747234b050429EF7KzA5JE93QIr4y[] = {
/* columns rows colors chars-per-pixel */
"64 64 139 2 ",
"   c #030000",
".  c #0B0000",
"X  c #130000",
"o  c #1B0000",
"O  c #230000",
"+  c #2C0102",
"@  c #340101",
"#  c #3C0102",
"$  c #430102",
"%  c #4D0102",
"&  c #520102",
"*  c #5C0102",
"=  c #640102",
"-  c #6C0101",
";  c #740102",
":  c #7C0102",
">  c #7D0102",
",  c #7E0102",
"<  c #7F0102",
"1  c #7F0202",
"2  c #7E0101",
"3  c #7B0102",
"4  c #810000",
"5  c #820000",
"6  c #820100",
"7  c #820001",
"8  c #800102",
"9  c #810102",
"0  c #830102",
"q  c #820202",
"w  c #850000",
"e  c #850001",
"r  c #860000",
"t  c #860001",
"y  c #860101",
"u  c #840102",
"i  c #850102",
"p  c #860102",
"a  c #870102",
"s  c #840202",
"d  c #850202",
"f  c #850101",
"g  c #890000",
"h  c #880001",
"j  c #890001",
"k  c #8A0001",
"l  c #8B0001",
"z  c #8A0101",
"x  c #890102",
"c  c #8A0102",
"v  c #8B0103",
"b  c #8E0001",
"n  c #8C0102",
"m  c #8D0102",
"M  c #8C0103",
"N  c #8E0102",
"B  c #8F0102",
"V  c #8C0202",
"C  c #8A0101",
"Z  c #910000",
"A  c #910100",
"S  c #910001",
"D  c #900101",
"F  c #910101",
"G  c #920000",
"H  c #900102",
"J  c #920102",
"K  c #950102",
"L  c #920101",
"P  c #9B0101",
"I  c #980102",
"U  c #990102",
"Y  c #9A0102",
"T  c #9B0102",
"R  c #9D0101",
"E  c #9C0102",
"W  c #9D0102",
"Q  c #9E0102",
"!  c #9F0102",
"~  c #9C0102",
"^  c #A00000",
"/  c #A10000",
"(  c #A00100",
")  c #A10100",
"_  c #A10001",
"`  c #A00102",
"'  c #A10102",
"]  c #A00103",
"[  c #A20102",
"{  c #A30102",
"}  c #A40101",
"|  c #A50101",
" . c #A70000",
".. c #A60001",
"X. c #A70001",
"o. c #A60102",
"O. c #A70102",
"+. c #A30101",
"@. c #A90000",
"#. c #AA0000",
"$. c #AC0000",
"%. c #AC0001",
"&. c #AF0101",
"*. c #AB0001",
"=. c #B40102",
"-. c #B50102",
";. c #B40102",
":. c #BD0000",
">. c #BD0001",
",. c #BE0000",
"<. c #BF0001",
"1. c #BD0001",
"2. c #C60101",
"3. c #C20102",
"4. c #C90102",
"5. c #CD0000",
"6. c #CD0001",
"7. c #CF0000",
"8. c #CC0102",
"9. c #CC0202",
"0. c #CC0001",
"q. c #D00001",
"w. c #D00101",
"e. c #D40102",
"r. c #D20001",
"t. c #D80102",
"y. c #DF0102",
"u. c #DC0102",
"i. c #E40000",
"p. c #E80102",
"a. c #EB0102",
"s. c #EF0000",
"d. c #ED0001",
"f. c #F20202",
"g. c #F00102",
"h. c #FB0202",
"j. c #FE0000",
"k. c red",
"l. c #FE0000",
/* pixels */
"    . 2 o ; = o X X X o o o o o $ *.*.S + p +  .. $ q q # - q o + z o o o - p.d.t.# o X . $ 2 X = - * z V S S S S V z p $ . .   ",
"  . . V x N # p p p p p U E ' z o X X X U X o - 2 X X . . + V S U + : ; o %.  . V o X . . X & p = = p.k.k.k.k.k.k.k.k.k.; o .   ",
". . . . = # E             o o % ; X . X ' o ; ' ; . . . . . . X X ' - { o K o : # ; p p p + X @ o %.f.; # # # # # @ + o $ V ;   ",
". . . X o ' . X X . . . . . .   p . . . q ' % . . . .   .   . . . %.a @ : $ : # ; %     o E + o   & = = 3 ; 3 3 ; ; - + z ; = . ",
". z V S - 3 3 o o X . . . . X   { . . . . . . .   . . . . .     .   . ; $ : # ; & X . . . + E + : O + 4.7.7.7.4.8.7.4.O $ * . . ",
"X  .X o a = 3 ' E ' T + . . .   %.X . .   .     . . = V 2 . .     . . V x $ ; & . . . . . X @ ' O + + N o o o o o $ 2 o   o X X ",
"& p - o o p * o o o . a + X X # E .   .       . . . & V U . . .   . . . X ; %           o o $ p # =.q = *.*.*.*.*.H @ H  .X = p ",
"V * p - o   p o E *. .+ z U z q   0 o.. .     . # U = % & X X . .   . . . * p p p p q E ' E p # e.k.:.O o o o X o + p . S X 2   ",
"o V * q ' ' = o z   O T o X . X 2 N E .       . U . U o - K =.= . . . . . . X . . . X o O + @ 4.k.k.<.O X X . . + a . + x   a X ",
". X U o o o o o U - & p X . . . @ - = .       . ' V $ ; = o q - . . X & o X . .   . X o q %.q # # # @ + o X . + 0   + 0   0 + . ",
". . S o z  . .V @ - 3 T X . . . . . .         . . X ; & o X q - X X o u.=.o o .   . o O :.k.q.% - 3 : & o X . E   + 0   a +   . ",
". . V X z o o z o X o X .   .               . . & z & . . X q - X o o %.k.2.. . .   o + :.k.q.& 7.k.h.8.O o = = + a   0 + .     ",
"  . S o z X X p X X X ; { q 3 .               . p   . . . - E @ o o o O E ; p   . . o @ :.k.e.* 7.k.h.<.O = = + q   s +         ",
"  . S X z X o p X . o q - o # 3 . . .         . p   X . = = o    .p z p X V K #   X o @ :.k.e.& 8.h.x @ ; = @ d   q + .         ",
". . V o p X X p X $ ; % S o o # 3 . . . .     . q   X = = * z & = p p p K o o 2 z = o @ :.k.7.$ 8.z @ + &.+ d   s +             ",
"  . V X p o X p o p 3 p * U p q 2.  @ - $ .   . p   = = * = X ; &         X . p + = = + :.k.7.# $ O O O 3.J . d +               ",
". % V @ U X X V o x X K o         X q U S . . . - 2 * = = . . X z X . . . X S   p + - = ; :.U + o o o   g.O ' O .               ",
". p   - - o   %.o %.x :     X o o X & K z . .   . . = = . . . X z . . . . . =.S . U o - - # @ + o o o   g.O %.  . .             ",
". p   - - o   *.o = & - O.W z z p V p $ @ . . . . = = . . . . . V . . .   . . X . T o O z i.i.U O o o   g.O *.  . .             ",
"  p   * E S K *     = p . X . . . X S o X X X . X z . . . . . 3 3 X . .       . . = = O p k.4.# K @ O o %.o *.  .               ",
". p   . . X X 2 V p ; . . . . . . X z o o X W ; X z . . . X : ; = *.. .     . . . . = N *.3.# ' @ e.# + O o p % .               ",
". 2 . . . . X V X . .           . = * * 3 o *.q o p o . X ; : - p = - . . .   .   . . o o O E # O k.e.$ + o o ; & .             ",
". 3 . . . . . V . .           . . z o z ' o *.1 o 0 p a z ; = p X X * { . . . . . . X X o = ; + + k.k.p.3.o o X ; & .         . ",
". 2 . .     . S . .           . . z o S ' o K * o o X o X = p X . .   o.o z z p z z z x o p   O z %.*.*.*.& o E $ ; & . . . . . ",
"& ; . . .   . S .           . . X z o V U o o * V K S S S : . . . .   *.o E o . X . X z o q   a - + + O O o o z 3 # ; & X . X X ",
"; # S + .     S . .   .   a z z z p . ; * o * = . . . . . . .   . .   %.o E o . . . X z o p a - 3 K S V S S 3 + p 3 $ ; E ' ' ' ",
"@ q o p .   . % ; . .   p + . . . . . . . . q   . . .           . .   &.o ' X . . X ; & = ' - 2 3 o o o o o $ 3 + x : @ o o o o ",
"= ' z : .       & ; . p O . .       .     . p   .                 . # H o 0 # . X ; & = * V o %.p - - - - - - V = + p # . %.%.  ",
"X . . .           & ; V . .   .   .       . p   .               . # : + K + : - 2 & = =   p o     - - - - - - - + o o o . E 0   ",
". .               . & * X . . . .   .   . . = ; . .     .   .   # : + 0   p + = % = = X E # = - -             o X *.p p S # ; . ",
"                  . . X o o X o o . . . . . X ; 3 . . . . . . # : + a   X   p o o K S U # V 3 - - q q p p p J X X ( o X 3 = . . ",
"                    . V p #         X   *.E + o *.  X . . X # 3 + 0   . X 3 & O O O O o K * X . . . . . . X z X X ( X o - - .   ",
"                    . p z i.k.k.h.&.o . a   a X *  . . . . .z + 0   . X   o.O u.e.p U o %.  . .     . . . . z X X ' o   E @     ",
"                      . & ; - - = $ U : + 0 0 X X X X X . X . p   . . X O *.+ d.d.+ ' O *.  . .         . . z X X ' . E # .     ",
"                      . X X o o o z   # : + #       X . X . X 2 . . X + T * O 3.3.q U O %.  .           . . x X X =.' # .       ",
"                          . . X X p   X # : X o.a x + . X . . 2 X X + E + o O O O O O o K * X . .   . . . . z . .     . . . . . ",
". .                             . 0   X   a X x o - q . % X X 2 X + T + 8.  o ; V S S K # N * . . . . . X : # X . . X . X . . . ",
"*.z .                         . & ; .   s + : # X - q   3.= o p K K + E *.; o p X o o . E # H * X - S p z # x # X X X { %.%.%.%.",
"  = p .                       $ : .   a + : # X X ; ; O E - U o o . { # o * = % ; o o o X E # 0 z ; o o o = ; T @ o : =         ",
". . - 2                     . - - X 0 o = H - - - 3 + p . o ' o ; E # . . . = = & : - - - N x o o * U *.  & *.*.$ o a *.- o X X ",
"X X X V .                     - - X p   + - - - = + q   X o ' o %.  . . . . . = = % 2 q 2 . % E S a o T   o o o o X o O.*.X X X ",
"X X X S .                   . - - + s   . . . . X s   o X o ' O %.  .       . . E o . o X o = x o o a = :  . . .{ + X o B * X X ",
" . .' U . .                   - - 0   . . . . X X 3 # o o o ' o *.  . .       . E X X X & p $ H * x = : : X X X + U + X X N o. .",
". . . . . . . . . . . .     . @ 0   .     . . 2 v + s ( E ' E o K   .       . . { X X X E   E # s - : 3 o X X X X + Q o X X X X ",
". . . . .   - - - - - * .         . . . . X X z # Q o O o O o K # . .       . + N X X X q a 0 -.o 3 3 O O O o o o ; & & - & X . ",
".           *.q q q q *..             2 %.E U + 3 ( o { *.=.O %.  . .     . + q   a x x +       o  .+ @ @ @ + o ; & = a 0 0 = . ",
"            p X X X 3 3 .           . V     . z X o o O.o ' O *.  X . . . . p   a + X @ 0 X . X o = 2.7.8.q.8.-.& = = . . . x . ",
"        .   p X o ; 3 .           . . S . . X z o * q $ O.-.o %.q p p p + o z o a + . X # : X X o + i.k.k.k.d.= = = . . . . x . ",
".       .   p X ; 3 . .             . S . . . z o p & S o O o .         a H = o . p + . . *.  . o + i.k.k.a.= - = . .     . z . ",
"      . .   p 3 ; . .               . S . . . z X q   * ( { & X - - - - . o : H p . z . X *.  . X o U %.;.= = 3 o . . . . . p . ",
".   . . 2 - & 3 . .               . . V . . . 3 # ; % o o - -   E - - - a ; # E p o 3 p z K   . . o O + + + ; - o . . X X X z . ",
".     . 2 = = . .           .   . . = = .     . 3 # ; & X - -   p X . .   * S # z o X o X . . .   .   *.; o % ; o o o o o o z . ",
"  .   . q   p . . .     # p   . S S - .         . 3 # ; & - -   q . .   . . * V o X ; p - . .     .   p  .  o = p p p p q q U . ",
"    . . 2   p .     . # 2 q   . V X .             . 3 # ; K -   p . .     . . * q o V   2 .       .   p # E o O :.d.d.d.d.i.* X ",
"    . . 2   q . . . # 3 . q   . S . .             . . 3 # * @   q .       . . X z X ( - V . .         %.+ $ ' = + + + + + o X . ",
"    . . 2   p . . # 3 . X p   X S .                 . X z o     q + . .     . . p o = - & . .       .   p @ :.:.+ 3 z p - o .   ",
"      . 2   p . # 3 . . . @ ' X 3 & .               . . p X 3.* - q .   . . . ; &           .         .   p :.:.O  ..   2 X .   ",
"      . ; z + X *.  . . .   *.X . ; %             . . + z o o o = q X . . . ; % = a q p p S .   .     . X o %.K O *.o o 2 .     ",
"        . . . X *.  . . .   *.X . X ; & . .       . + T + z z p # ; % . X ; & = = X . X X 2 . . .   . . o O O + + E p q K X     ",
"          . . . *.  .   .    .X X X X ; & . .   .   { + o.# o o V o z X o E o *.X X X X X 2 X     . X o O @ # # # # p q = .     ",
"        . . .   E . . . . . z = # q q # ; ; + X X   { o % S K S V X p o o E o *.o X   K H & =  .' + o = :.:.3.:.3.' @ O o .     ",
"      . 3 *.$   p . . . . X q - - E - p $ - x + . a @ ; # o o o o o 3 = o E o  .    E # o & : X + U O p k.k.k.k.k.k.%.+ o       ",
"      = * - -   p X X . . o q - - p o o E X . H T @ : E - * S 2 2 ; o q - ' O ; p p # {   - - X o z + 2 d.d.d.d.d.d.d.U o .     ",
"    . q X - -    .z z z E  .:.= - q o $ v @ K X o ; : E - - q o o z X o 2 - O O O o   *.  - - . o V + # % & * * * & # + o .     "
};
